:FULLY-SPECIFIED
:DEGREES
2133
root 0.277163 15.7352 -2.77338 4376.43 -96.518 -4372.81
lowerback 4.00009 0.660641 -9.266
upperback -1.5597 0.351831 0.0669089
thorax -3.94833 0.402587 5.25
lowerneck -16.6535 0.955418 1.11655
upperneck 19.5626 1.57384 -3.02221
head 8.91189 0.435423 -1.02723
rclavicle 7.55382e-015 1.78906e-015
rhumerus -38.4892 -15.4815 -78.9916
rradius 16.8965
rwrist 13.882
rhand -28.7287 -18.3261
rfingers 7.12502
rthumb -2.08969 -48.2956
lclavicle 7.55382e-015 1.78906e-015
lhumerus -17.674 -11.6134 91.1937
lradius 35.7381
lwrist 12.034
lhand -32.7991 15.9569
lfingers 7.12502
lthumb -6.02023 45.8514
rfemur -31.6192 5.46325 15.2403
rtibia 32.0665
rfoot -17.8246 -20.1201
rtoes -14.8823
lfemur 2.95467 -5.28765 -31.9726
ltibia 13.3475
lfoot -11.6382 3.84851
ltoes -11.5404
2134
root 0.285889 15.7448 -2.78452 4378.72 -96.5185 -4374.81
lowerback 3.81056 0.657671 -9.35292
upperback -1.65133 0.354861 0.00967974
thorax -3.93875 0.407459 5.23863
lowerneck -16.6772 0.909891 1.14001
upperneck 19.5959 1.51576 -3.07038
head 8.92686 0.40408 -1.05504
rclavicle 3.18055e-015 -8.15017e-015
rhumerus -38.188 -15.965 -78.9039
rradius 16.677
rwrist 14.6847
rhand -29.0203 -17.8505
rfingers 7.12502
rthumb -2.37129 -47.8171
lclavicle 3.18055e-015 -8.15017e-015
lhumerus -17.8098 -11.6872 91.2603
lradius 36.0103
lwrist 12.0879
lhand -32.8111 15.8078
lfingers 7.12502
lthumb -6.03181 45.7019
rfemur -31.689 6.46195 14.6751
rtibia 29.5366
rfoot -17.8142 -19.795
rtoes -15.987
lfemur 4.04368 -5.16952 -32.0425
ltibia 11.8014
lfoot -11.0355 3.42768
ltoes -12.3258
2135
root 0.293402 15.7575 -2.79673 4380.49 -96.4605 -4376.32
lowerback 3.61843 0.634596 -9.38222
upperback -1.69083 0.340577 0.00411105
thorax -3.86939 0.398972 5.25074
lowerneck -16.7403 0.89418 1.12211
upperneck 19.5782 1.50627 -3.0999
head 8.93222 0.39528 -1.06309
rclavicle 1.27222e-014 -1.21259e-014
rhumerus -37.6891 -15.8972 -79.118
rradius 16.5442
rwrist 15.0623
rhand -29.2175 -17.5624
rfingers 7.12502
rthumb -2.56177 -47.5267
lclavicle 1.27222e-014 -1.21259e-014
lhumerus -17.8869 -11.6492 91.3177
lradius 36.3284
lwrist 12.2321
lhand -32.8241 15.7485
lfingers 7.12502
lthumb -6.04436 45.6423
rfemur -31.8089 8.06306 13.9997
rtibia 27.2955
rfoot -18.2207 -20.0055
rtoes -16.2293
lfemur 5.27073 -5.15556 -32.0333
ltibia 10.1064
lfoot -10.3123 3.13311
ltoes -12.8968
2136
root 0.298184 15.7676 -2.81141 4382.71 -96.3982 -4378.31
lowerback 3.48499 0.638741 -9.39273
upperback -1.74391 0.354877 -0.0335919
thorax -3.85179 0.406379 5.21612
lowerneck -16.7768 0.834154 1.04827
upperneck 19.56 1.43322 -3.05359
head 8.92997 0.361081 -1.04394
rclavicle -8.15017e-015 4.77083e-015
rhumerus -37.2446 -15.9453 -79.3716
rradius 16.5899
rwrist 15.0422
rhand -29.0926 -17.7729
rfingers 7.12502
rthumb -2.4411 -47.7387
lclavicle -8.15017e-015 4.77083e-015
lhumerus -18.0639 -11.7202 91.4319
lradius 36.5542
lwrist 12.2411
lhand -32.7137 15.8073
lfingers 7.12502
lthumb -5.93777 45.7041
rfemur -31.9548 9.68445 13.2481
rtibia 25.4509
rfoot -18.8683 -20.7378
rtoes -16.3389
lfemur 6.67657 -5.06871 -32.0034
ltibia 8.15345
lfoot -9.5375 2.63433
ltoes -13.2028
2137
root 0.302928 15.7715 -2.82538 4385 -96.3312 -4380.36
lowerback 3.29613 0.609383 -9.40201
upperback -1.81038 0.330301 -0.0600978
thorax -3.81063 0.393953 5.19548
lowerneck -16.7791 0.811221 1.09078
upperneck 19.5905 1.40523 -3.1204
head 8.94103 0.343256 -1.07758
rclavicle 1.78906e-015 -1.86858e-014
rhumerus -36.6926 -15.4291 -79.926
rradius 16.6839
rwrist 14.4116
rhand -29.1277 -17.7199
rfingers 7.12502
rthumb -2.47501 -47.6853
lclavicle 1.78906e-015 -1.86858e-014
lhumerus -18.3274 -11.783 91.554
lradius 36.7596
lwrist 12.4472
lhand -32.738 15.8815
lfingers 7.12502
lthumb -5.96126 45.7776
rfemur -32.2104 11.1598 12.5406
rtibia 23.9804
rfoot -19.5624 -21.7379
rtoes -16.4089
lfemur 8.13053 -4.99433 -31.9681
ltibia 6.0677
lfoot -8.63859 2.20008
ltoes -13.4729
2138
root 0.304494 15.7721 -2.83885 4387.29 -96.3342 -4382.47
lowerback 3.162 0.61885 -9.45109
upperback -1.85138 0.351019 -0.0883909
thorax -3.78159 0.404723 5.19218
lowerneck -16.8249 0.755067 1.08955
upperneck 19.5863 1.34685 -3.20308
head 8.94723 0.306661 -1.11289
rclavicle -7.35503e-015 1.76918e-014
rhumerus -36.2061 -15.2074 -80.2847
rradius 16.8401
rwrist 14.2568
rhand -29.1736 -17.6808
rfingers 7.12502
rthumb -2.51939 -47.6456
lclavicle -7.35503e-015 1.76918e-014
lhumerus -18.5816 -11.8408 91.7485
lradius 36.9012
lwrist 12.6843
lhand -32.8275 15.7463
lfingers 7.12502
lthumb -6.04763 45.64
rfemur -32.4469 12.1591 11.9741
rtibia 22.9441
rfoot -20.2903 -22.5409
rtoes -16.3037
lfemur 10.0359 -4.88548 -32.0033
ltibia 3.30964
lfoot -7.38961 1.69043
ltoes -13.3243
2139
root 0.308045 15.7719 -2.85443 4389.91 -96.2658 -4384.9
lowerback 3.04699 0.634488 -9.42785
upperback -1.83234 0.385586 -0.114339
thorax -3.70115 0.416484 5.14999
lowerneck -17.081 0.65588 0.974475
upperneck 19.6041 1.23729 -3.17229
head 8.99649 0.249375 -1.09714
rclavicle 4.96962e-016 -2.0276e-014
rhumerus -35.5524 -14.7757 -80.7932
rradius 17.0431
rwrist 13.7525
rhand -29.1877 -17.7041
rfingers 7.12502
rthumb -2.53297 -47.6688
lclavicle 4.96962e-016 -2.0276e-014
lhumerus -18.7231 -11.8321 91.9326
lradius 36.9392
lwrist 12.5797
lhand -32.8283 15.5687
lfingers 7.12502
lthumb -6.04843 45.4624
rfemur -32.706 12.9492 11.57
rtibia 22.29
rfoot -20.9779 -23.4652
rtoes -16.5389
lfemur 12.2347 -4.84278 -31.9565
ltibia 2.54444e-014
lfoot -5.88128 1.3002
ltoes -14.2908
2140
root 0.308494 15.7623 -2.87144 4392.11 -96.2591 -4386.97
lowerback 2.93519 0.641258 -9.47003
upperback -1.86976 0.401438 -0.133992
thorax -3.68022 0.425104 5.15232
lowerneck -17.0153 0.61845 0.926467
upperneck 19.5468 1.19613 -3.16594
head 8.96358 0.228527 -1.09165
rclavicle 1.19271e-015 -1.0138e-014
rhumerus -35.0317 -14.1253 -81.362
rradius 17.3003
rwrist 13.1846
rhand -29.2396 -17.7293
rfingers 7.12502
rthumb -2.58309 -47.6934
lclavicle 1.19271e-015 -1.0138e-014
lhumerus -19.0608 -11.774 92.1296
lradius 36.8811
lwrist 12.4787
lhand -32.8733 15.4212
lfingers 7.12502
lthumb -6.09192 45.3136
rfemur -32.8796 13.2744 11.376
rtibia 21.9662
rfoot -21.5431 -23.9388
rtoes -16.5419
lfemur 12.6989 -4.73049 -31.9538
ltibia 3.18055e-014
lfoot -5.89485 0.996538
ltoes -15.4789
2141
root 0.31117 15.7544 -2.88635 4394.7 -96.2323 -4389.37
lowerback 2.81615 0.634549 -9.40097
upperback -1.89464 0.404757 -0.185372
thorax -3.63779 0.422817 5.05962
lowerneck -17.1563 0.557998 0.896041
upperneck 19.6012 1.12565 -3.17769
head 9.00627 0.190735 -1.10007
rclavicle 1.68967e-015 2.28602e-014
rhumerus -34.4785 -13.4459 -82.005
rradius 17.6264
rwrist 12.6077
rhand -29.4617 -17.7692
rfingers 7.12502
rthumb -2.79761 -47.7306
lclavicle 1.68967e-015 2.28602e-014
lhumerus -19.3373 -11.789 92.2986
lradius 36.779
lwrist 12.679
lhand -32.9325 15.3121
lfingers 7.12502
lthumb -6.14904 45.2028
rfemur -33.0368 13.2905 11.3255
rtibia 21.8925
rfoot -21.7897 -24.1716
rtoes -16.8667
lfemur 13.0915 -4.67135 -31.9212
ltibia -1.59028e-014
lfoot -5.84287 0.674689
ltoes -16.9702
2142
root 0.313039 15.7418 -2.90176 4396.91 -96.3231 -4391.46
lowerback 2.82029 0.659088 -9.47692
upperback -1.96878 0.426198 -0.233988
thorax -3.7226 0.440391 5.04945
lowerneck -17.0994 0.539528 0.918803
upperneck 19.5664 1.11157 -3.26005
head 8.98427 0.177495 -1.13345
rclavicle -8.40486e-015 1.21259e-014
rhumerus -33.9857 -12.7813 -82.532
rradius 17.9135
rwrist 11.9168
rhand -29.4867 -17.7184
rfingers 7.12502
rthumb -2.82171 -47.6794
lclavicle -8.40486e-015 1.21259e-014
lhumerus -19.795 -11.7514 92.5301
lradius 36.584
lwrist 12.5455
lhand -32.9561 15.2873
lfingers 7.12502
lthumb -6.1718 45.1774
rfemur -33.0109 12.9044 11.4253
rtibia 22.0237
rfoot -21.6774 -24.047
rtoes -17.0408
lfemur 13.5545 -4.53971 -31.9939
ltibia -9.54166e-015
lfoot -5.72813 0.339281
ltoes -17.6645
